<svg width="80" height="80" viewBox="0 0 80 80" xmlns="http://www.w3.org/2000/svg">
                        <defs>
                            <linearGradient id="iconOnly" x1="0%" y1="0%" x2="100%" y2="100%">
                                <stop offset="0%" style="stop-color:#8B5CF6"/>
                                <stop offset="50%" style="stop-color:#6366F1"/>
                                <stop offset="100%" style="stop-color:#3B82F6"/>
                            </linearGradient>
                        </defs>
                        
                        <circle cx="40" cy="40" r="28" fill="url(#iconOnly)" opacity="0.1"/>
                        
                        <g transform="translate(20, 20)">
                            <circle cx="20" cy="20" r="18" fill="none" stroke="url(#iconOnly)" stroke-width="2" opacity="0.6"/>
                            <circle cx="20" cy="8" r="3" fill="url(#iconOnly)"/>
                            <circle cx="32" cy="20" r="3" fill="url(#iconOnly)"/>
                            <circle cx="20" cy="32" r="3" fill="url(#iconOnly)"/>
                            <circle cx="8" cy="20" r="3" fill="url(#iconOnly)"/>
                            <circle cx="20" cy="20" r="5" fill="url(#iconOnly)"/>
                            <line x1="20" y1="13" x2="20" y2="8" stroke="url(#iconOnly)" stroke-width="2" opacity="0.8"/>
                            <line x1="27" y1="20" x2="32" y2="20" stroke="url(#iconOnly)" stroke-width="2" opacity="0.8"/>
                            <line x1="20" y1="27" x2="20" y2="32" stroke="url(#iconOnly)" stroke-width="2" opacity="0.8"/>
                            <line x1="13" y1="20" x2="8" y2="20" stroke="url(#iconOnly)" stroke-width="2" opacity="0.8"/>
                            <line x1="25" y1="15" x2="28" y2="12" stroke="url(#iconOnly)" stroke-width="1.5" opacity="0.6"/>
                            <line x1="25" y1="25" x2="28" y2="28" stroke="url(#iconOnly)" stroke-width="1.5" opacity="0.6"/>
                            <line x1="15" y1="25" x2="12" y2="28" stroke="url(#iconOnly)" stroke-width="1.5" opacity="0.6"/>
                            <line x1="15" y1="15" x2="12" y2="12" stroke="url(#iconOnly)" stroke-width="1.5" opacity="0.6"/>
                            <circle cx="28" cy="12" r="1.5" fill="url(#iconOnly)" opacity="0.8"/>
                            <circle cx="28" cy="28" r="1.5" fill="url(#iconOnly)" opacity="0.8"/>
                            <circle cx="12" cy="28" r="1.5" fill="url(#iconOnly)" opacity="0.8"/>
                            <circle cx="12" cy="12" r="1.5" fill="url(#iconOnly)" opacity="0.8"/>
                        </g>
                    </svg>